<svg width="24" height="24" viewBox="0 0 24 24" fill="none" xmlns="http://www.w3.org/2000/svg">
<mask id="mask0_226_539" style="mask-type:alpha" maskUnits="userSpaceOnUse" x="0" y="0" width="24" height="24">
<rect width="24" height="24" fill="#D9D9D9"/>
</mask>
<g mask="url(#mask0_226_539)">
<mask id="mask1_226_539" style="mask-type:alpha" maskUnits="userSpaceOnUse" x="0" y="0" width="24" height="24">
<rect width="24" height="24" fill="#D9D9D9"/>
</mask>
<g mask="url(#mask1_226_539)">
<path d="M6.9998 14H13.0248C13.3081 14 13.5415 13.904 13.7248 13.712C13.9081 13.5207 13.9998 13.2833 13.9998 13C13.9998 12.7167 13.9041 12.479 13.7128 12.287C13.5208 12.0957 13.2831 12 12.9998 12H6.9748C6.69147 12 6.45814 12.0957 6.27481 12.287C6.09147 12.479 5.9998 12.7167 5.9998 13C5.9998 13.2833 6.09547 13.5207 6.28681 13.712C6.47881 13.904 6.71647 14 6.9998 14ZM6.9998 11H17.0248C17.3081 11 17.5415 10.904 17.7248 10.712C17.9081 10.5207 17.9998 10.2833 17.9998 9.99999C17.9998 9.71665 17.9038 9.47899 17.7118 9.28699C17.5205 9.09565 17.2831 8.99999 16.9998 8.99999H6.9748C6.69147 8.99999 6.45814 9.09565 6.27481 9.28699C6.09147 9.47899 5.9998 9.71665 5.9998 9.99999C5.9998 10.2833 6.09547 10.5207 6.28681 10.712C6.47881 10.904 6.71647 11 6.9998 11ZM6.9998 7.99999H17.0248C17.3081 7.99999 17.5415 7.90432 17.7248 7.71299C17.9081 7.52099 17.9998 7.28332 17.9998 6.99999C17.9998 6.71665 17.9038 6.47899 17.7118 6.28699C17.5205 6.09565 17.2831 5.99999 16.9998 5.99999H6.9748C6.69147 5.99999 6.45814 6.09565 6.27481 6.28699C6.09147 6.47899 5.9998 6.71665 5.9998 6.99999C5.9998 7.28332 6.09547 7.52099 6.28681 7.71299C6.47881 7.90432 6.71647 7.99999 6.9998 7.99999ZM1.7998 19.45V4.07499C1.7998 3.44165 2.02047 2.90399 2.4618 2.46199C2.9038 2.02065 3.44147 1.79999 4.0748 1.79999H19.9248C20.5581 1.79999 21.0958 2.02065 21.5378 2.46199C21.9791 2.90399 22.1998 3.44165 22.1998 4.07499V15.925C22.1998 16.5583 21.9791 17.096 21.5378 17.538C21.0958 17.9793 20.5581 18.2 19.9248 18.2H5.7998L3.7248 20.275C3.3748 20.625 2.96647 20.7043 2.4998 20.513C2.03314 20.321 1.7998 19.9667 1.7998 19.45Z" fill="#618F79"/>
</g>
</g>
</svg>
