<svg width="20" height="20" viewBox="0 0 20 20" fill="none" xmlns="http://www.w3.org/2000/svg">
<mask id="mask0_226_859" style="mask-type:alpha" maskUnits="userSpaceOnUse" x="0" y="0" width="20" height="20">
<rect width="20" height="20" fill="#D9D9D9"/>
</mask>
<g mask="url(#mask0_226_859)">
<path d="M7.95829 14.7708C7.83329 14.7708 7.71524 14.7499 7.60413 14.7083C7.49302 14.6666 7.38885 14.5972 7.29163 14.4999L3.70829 10.9166C3.52774 10.7361 3.44107 10.5102 3.44829 10.2391C3.45496 9.96856 3.54857 9.743 3.72913 9.56245C3.90968 9.38189 4.13551 9.29162 4.40663 9.29162C4.67718 9.29162 4.89579 9.38189 5.06246 9.56245L7.95829 12.4583L14.9375 5.47912C15.1041 5.29856 15.3263 5.20828 15.6041 5.20828C15.8819 5.20828 16.1111 5.29856 16.2916 5.47912C16.4583 5.65967 16.5416 5.88523 16.5416 6.15578C16.5416 6.42689 16.4583 6.65273 16.2916 6.83328L8.62496 14.4999C8.52774 14.5972 8.42357 14.6666 8.31246 14.7083C8.20135 14.7499 8.08329 14.7708 7.95829 14.7708Z" fill="#618F79"/>
</g>
</svg>
