<svg width="24" height="24" viewBox="0 0 24 24" fill="none" xmlns="http://www.w3.org/2000/svg">
<mask id="mask0_226_579" style="mask-type:alpha" maskUnits="userSpaceOnUse" x="0" y="0" width="24" height="24">
<rect width="24" height="24" fill="#D9D9D9"/>
</mask>
<g mask="url(#mask0_226_579)">
<path d="M7.00005 14H13.025C13.3084 14 13.5417 13.904 13.725 13.712C13.9084 13.5207 14 13.2833 14 13C14 12.7167 13.9044 12.479 13.713 12.287C13.521 12.0957 13.2834 12 13 12H6.97505C6.69172 12 6.45838 12.0957 6.27505 12.287C6.09172 12.479 6.00005 12.7167 6.00005 13C6.00005 13.2833 6.09572 13.5207 6.28705 13.712C6.47905 13.904 6.71672 14 7.00005 14ZM7.00005 11H17.025C17.3084 11 17.5417 10.904 17.725 10.712C17.9084 10.5207 18 10.2833 18 9.99999C18 9.71665 17.904 9.47899 17.712 9.28699C17.5207 9.09565 17.2834 8.99999 17 8.99999H6.97505C6.69172 8.99999 6.45838 9.09565 6.27505 9.28699C6.09172 9.47899 6.00005 9.71665 6.00005 9.99999C6.00005 10.2833 6.09572 10.5207 6.28705 10.712C6.47905 10.904 6.71672 11 7.00005 11ZM7.00005 7.99999H17.025C17.3084 7.99999 17.5417 7.90432 17.725 7.71299C17.9084 7.52099 18 7.28332 18 6.99999C18 6.71665 17.904 6.47899 17.712 6.28699C17.5207 6.09565 17.2834 5.99999 17 5.99999H6.97505C6.69172 5.99999 6.45838 6.09565 6.27505 6.28699C6.09172 6.47899 6.00005 6.71665 6.00005 6.99999C6.00005 7.28332 6.09572 7.52099 6.28705 7.71299C6.47905 7.90432 6.71672 7.99999 7.00005 7.99999ZM1.80005 19.45V4.07499C1.80005 3.44165 2.02072 2.90399 2.46205 2.46199C2.90405 2.02065 3.44172 1.79999 4.07505 1.79999H19.925C20.5584 1.79999 21.0961 2.02065 21.538 2.46199C21.9794 2.90399 22.2001 3.44165 22.2001 4.07499V15.925C22.2001 16.5583 21.9794 17.096 21.538 17.538C21.0961 17.9793 20.5584 18.2 19.925 18.2H5.80005L3.72505 20.275C3.37505 20.625 2.96672 20.7043 2.50005 20.513C2.03338 20.321 1.80005 19.9667 1.80005 19.45ZM4.07505 16.9L5.02505 15.925H19.925V4.07499H4.07505V16.9Z" fill="#618F79"/>
</g>
</svg>
