<svg width="24" height="24" viewBox="0 0 24 24" fill="none" xmlns="http://www.w3.org/2000/svg">
<mask id="mask0_222_433" style="mask-type:alpha" maskUnits="userSpaceOnUse" x="0" y="0" width="24" height="24">
<rect width="24" height="24" fill="#1C1B1F"/>
</mask>
<g mask="url(#mask0_222_433)">
<mask id="mask1_222_433" style="mask-type:alpha" maskUnits="userSpaceOnUse" x="0" y="0" width="24" height="24">
<rect width="24" height="24" fill="#D9D9D9"/>
</mask>
<g mask="url(#mask1_222_433)">
<path d="M10.475 19.9L8.72505 18.325C6.95838 16.7083 5.36272 15.1 3.93805 13.5C2.51272 11.9 1.80005 10.1167 1.80005 8.15001C1.80005 6.51668 2.34172 5.15835 3.42505 4.07501C4.50838 2.99168 5.86672 2.45001 7.50005 2.45001C8.36672 2.45001 9.19172 2.62501 9.97505 2.97501C10.7584 3.32501 11.4334 3.82501 12 4.47501C12.5667 3.82501 13.2377 3.32501 14.013 2.97501C14.7877 2.62501 15.6167 2.45001 16.5 2.45001C18.1167 2.45001 19.4707 2.99168 20.562 4.07501C21.654 5.15835 22.2001 6.51668 22.2001 8.15001C22.2001 10.1167 21.4874 11.904 20.062 13.512C18.6374 15.1207 17.0334 16.7333 15.25 18.35L13.525 19.9C13.0917 20.3 12.5834 20.5 12 20.5C11.4167 20.5 10.9084 20.3 10.475 19.9Z" fill="#618F79"/>
</g>
<path d="M10.475 19.9L8.72505 18.325C6.95838 16.7083 5.36272 15.1 3.93805 13.5C2.51272 11.9 1.80005 10.1167 1.80005 8.15001C1.80005 6.51668 2.34172 5.15835 3.42505 4.07501C4.50838 2.99168 5.86672 2.45001 7.50005 2.45001C8.36672 2.45001 9.19172 2.62501 9.97505 2.97501C10.7584 3.32501 11.4334 3.82501 12 4.47501C12.5667 3.82501 13.2377 3.32501 14.013 2.97501C14.7877 2.62501 15.6167 2.45001 16.5 2.45001C18.1167 2.45001 19.4707 2.99168 20.562 4.07501C21.654 5.15835 22.2001 6.51668 22.2001 8.15001C22.2001 10.1167 21.4874 11.904 20.062 13.512C18.6374 15.1207 17.0334 16.7333 15.25 18.35L13.525 19.9C13.0917 20.3167 12.5834 20.525 12 20.525C11.4167 20.525 10.9084 20.3167 10.475 19.9ZM11 6.77501C10.55 6.12501 10.046 5.62068 9.48805 5.26201C8.92938 4.90401 8.26672 4.72501 7.50005 4.72501C6.51672 4.72501 5.70005 5.05001 5.05005 5.70001C4.40005 6.35001 4.07505 7.16668 4.07505 8.15001C4.07505 9.01668 4.37938 9.93335 4.98805 10.9C5.59605 11.8667 6.32505 12.804 7.17505 13.712C8.02505 14.6207 8.90005 15.4707 9.80005 16.262C10.7 17.054 11.4334 17.7 12 18.2C12.5667 17.6833 13.3 17.0293 14.2 16.238C15.1 15.446 15.975 14.596 16.825 13.688C17.675 12.7793 18.4044 11.8457 19.0131 10.887C19.6211 9.92901 19.925 9.01668 19.925 8.15001C19.925 7.16668 19.6001 6.35001 18.9501 5.70001C18.3001 5.05001 17.4834 4.72501 16.5 4.72501C15.7334 4.72501 15.071 4.90401 14.513 5.26201C13.9544 5.62068 13.45 6.12501 13 6.77501C12.8667 6.95835 12.7127 7.09601 12.538 7.18801C12.3627 7.27935 12.1834 7.32501 12 7.32501C11.8 7.32501 11.6127 7.27935 11.438 7.18801C11.2627 7.09601 11.1167 6.95835 11 6.77501Z" fill="#618F79"/>
</g>
</svg>
