<svg width="24" height="24" viewBox="0 0 24 24" fill="none" xmlns="http://www.w3.org/2000/svg">
<mask id="mask0_226_663" style="mask-type:alpha" maskUnits="userSpaceOnUse" x="0" y="0" width="24" height="24">
<rect width="24" height="24" fill="#D9D9D9"/>
</mask>
<g mask="url(#mask0_226_663)">
<path d="M4.7999 19.175C4.48324 19.175 4.21257 19.0667 3.9879 18.85C3.76257 18.6333 3.6499 18.3583 3.6499 18.025C3.6499 17.7083 3.76257 17.4417 3.9879 17.225C4.21257 17.0083 4.48324 16.9 4.7999 16.9H5.7249V10.125C5.7249 8.67499 6.15424 7.39166 7.0129 6.27499C7.8709 5.15833 8.98324 4.42499 10.3499 4.07499V3.39999C10.3499 2.94999 10.5126 2.56666 10.8379 2.24999C11.1626 1.93333 11.5499 1.77499 11.9999 1.77499C12.4499 1.77499 12.8376 1.93333 13.1629 2.24999C13.4876 2.56666 13.6499 2.94999 13.6499 3.39999V4.07499C15.0332 4.42499 16.1499 5.15833 16.9999 6.27499C17.8499 7.39166 18.2749 8.67499 18.2749 10.125V16.9H19.1999C19.5332 16.9 19.8082 17.0083 20.0249 17.225C20.2416 17.4417 20.3499 17.7083 20.3499 18.025C20.3499 18.3583 20.2416 18.6333 20.0249 18.85C19.8082 19.0667 19.5332 19.175 19.1999 19.175H4.7999ZM11.9999 22.2C11.4332 22.2 10.9459 22 10.5379 21.6C10.1292 21.2 9.9249 20.7167 9.9249 20.15H14.0749C14.0749 20.7167 13.8709 21.2 13.4629 21.6C13.0542 22 12.5666 22.2 11.9999 22.2Z" fill="#618F79"/>
</g>
</svg>
