<svg width="24" height="24" viewBox="0 0 24 24" fill="none" xmlns="http://www.w3.org/2000/svg">
<mask id="mask0_226_582" style="mask-type:alpha" maskUnits="userSpaceOnUse" x="0" y="0" width="24" height="24">
<rect width="24" height="24" fill="#D9D9D9"/>
</mask>
<g mask="url(#mask0_226_582)">
<path d="M4.80002 19.175C4.48336 19.175 4.21269 19.0667 3.98802 18.85C3.76269 18.6333 3.65002 18.3583 3.65002 18.025C3.65002 17.7083 3.76269 17.4417 3.98802 17.225C4.21269 17.0083 4.48336 16.9 4.80002 16.9H5.72502V10.125C5.72502 8.67499 6.15436 7.39166 7.01302 6.27499C7.87102 5.15833 8.98336 4.42499 10.35 4.07499V3.39999C10.35 2.94999 10.5127 2.56666 10.838 2.24999C11.1627 1.93333 11.55 1.77499 12 1.77499C12.45 1.77499 12.8377 1.93333 13.163 2.24999C13.4877 2.56666 13.65 2.94999 13.65 3.39999V4.07499C15.0334 4.42499 16.15 5.15833 17 6.27499C17.85 7.39166 18.275 8.67499 18.275 10.125V16.9H19.2C19.5334 16.9 19.8084 17.0083 20.025 17.225C20.2417 17.4417 20.35 17.7083 20.35 18.025C20.35 18.3583 20.2417 18.6333 20.025 18.85C19.8084 19.0667 19.5334 19.175 19.2 19.175H4.80002ZM12 22.2C11.4334 22.2 10.946 22 10.538 21.6C10.1294 21.2 9.92502 20.7167 9.92502 20.15H14.075C14.075 20.7167 13.871 21.2 13.463 21.6C13.0544 22 12.5667 22.2 12 22.2ZM8.00002 16.9H16V10.125C16 9.02499 15.6084 8.08333 14.825 7.29999C14.0417 6.51666 13.1 6.12499 12 6.12499C10.9 6.12499 9.95836 6.51666 9.17502 7.29999C8.39169 8.08333 8.00002 9.02499 8.00002 10.125V16.9Z" fill="#618F79"/>
</g>
</svg>
