<svg width="15" height="15" viewBox="0 0 15 15" fill="none" xmlns="http://www.w3.org/2000/svg">
<mask id="mask0_49_43" style="mask-type:alpha" maskUnits="userSpaceOnUse" x="0" y="0" width="15" height="15">
<rect width="15" height="15" fill="#D9D9D9"/>
</mask>
<g mask="url(#mask0_49_43)">
<path d="M11.7029 12.75L8.31213 9.35925C7.96863 9.60925 7.59638 9.7995 7.19538 9.93C6.79438 10.06 6.37513 10.125 5.93763 10.125C4.78113 10.125 3.79663 9.72125 2.98413 8.91375C2.17163 8.10675 1.76538 7.125 1.76538 5.9685C1.76538 4.8125 2.17163 3.8255 2.98413 3.0075C3.79663 2.19 4.78113 1.78125 5.93763 1.78125C7.09363 1.78125 8.07538 2.19 8.88288 3.0075C9.68988 3.8255 10.0934 4.8125 10.0934 5.9685C10.0934 6.406 10.0336 6.82525 9.91413 7.22625C9.79413 7.62775 9.60388 7.98975 9.34338 8.31225L12.7499 11.7502C12.8854 11.8857 12.9504 12.0522 12.9449 12.2498C12.9399 12.4478 12.8696 12.6145 12.7341 12.75C12.5886 12.896 12.4141 12.969 12.2106 12.969C12.0076 12.969 11.8384 12.896 11.7029 12.75ZM5.93763 8.625C6.67713 8.625 7.30738 8.36725 7.82838 7.85175C8.34888 7.33625 8.60913 6.7085 8.60913 5.9685C8.60913 5.2185 8.35138 4.58325 7.83588 4.06275C7.32038 3.54175 6.68763 3.28125 5.93763 3.28125C5.18763 3.28125 4.55213 3.54175 4.03113 4.06275C3.51013 4.58325 3.24963 5.2185 3.24963 5.9685C3.24963 6.7185 3.51013 7.34875 4.03113 7.85925C4.55213 8.36975 5.18763 8.625 5.93763 8.625Z" fill="#97C5AF"/>
</g>
</svg>
