<svg width="24" height="24" viewBox="0 0 24 24" fill="none" xmlns="http://www.w3.org/2000/svg">
<mask id="mask0_327_65" style="mask-type:alpha" maskUnits="userSpaceOnUse" x="0" y="0" width="24" height="24">
<rect width="24" height="24" fill="#D9D9D9"/>
</mask>
<g mask="url(#mask0_327_65)">
<path d="M16.1 13.3L14.65 11.85C14.8 11.0666 14.575 10.3333 13.975 9.64998C13.375 8.96664 12.6 8.69998 11.65 8.84998L10.2 7.39998C10.4834 7.26664 10.7707 7.16664 11.062 7.09998C11.354 7.03331 11.6667 6.99998 12 6.99998C13.25 6.99998 14.3127 7.43731 15.188 8.31198C16.0627 9.18731 16.5 10.25 16.5 11.5C16.5 11.8333 16.4667 12.146 16.4 12.438C16.3334 12.7293 16.2334 13.0166 16.1 13.3ZM19.3 16.45L17.85 15.05C18.4834 14.5666 19.046 14.0373 19.538 13.462C20.0294 12.8873 20.45 12.2333 20.8 11.5C19.9667 9.81664 18.7707 8.47898 17.212 7.48698C15.654 6.49564 13.9167 5.99998 12 5.99998C11.5167 5.99998 11.0417 6.03331 10.575 6.09998C10.1084 6.16664 9.65005 6.26664 9.20005 6.39998L7.65005 4.84998C8.33338 4.56664 9.03338 4.35398 9.75005 4.21198C10.4667 4.07064 11.2167 3.99998 12 3.99998C14.3834 3.99998 16.525 4.62898 18.425 5.88698C20.325 7.14564 21.75 8.78331 22.7001 10.8C22.75 10.8833 22.7834 10.9873 22.8 11.112C22.8167 11.2373 22.8251 11.3666 22.8251 11.5C22.8251 11.6333 22.8127 11.7623 22.788 11.887C22.7627 12.0123 22.7334 12.1166 22.7001 12.2C22.3167 13.05 21.8377 13.8333 21.2631 14.55C20.6877 15.2666 20.0334 15.9 19.3 16.45ZM19.1 21.9L15.6 18.45C15.0167 18.6333 14.4294 18.771 13.838 18.863C13.246 18.9543 12.6334 19 12 19C9.61672 19 7.47505 18.371 5.57505 17.113C3.67505 15.8543 2.25005 14.2166 1.30005 12.2C1.25005 12.1166 1.21672 12.0123 1.20005 11.887C1.18338 11.7623 1.17505 11.6333 1.17505 11.5C1.17505 11.3666 1.18338 11.2416 1.20005 11.125C1.21672 11.0083 1.25005 10.9083 1.30005 10.825C1.65005 10.075 2.06672 9.38331 2.55005 8.74998C3.03338 8.11664 3.56672 7.53331 4.15005 6.99998L2.07505 4.89998C1.89172 4.71664 1.80005 4.48731 1.80005 4.21198C1.80005 3.93731 1.90005 3.69998 2.10005 3.49998C2.28338 3.31664 2.51672 3.22498 2.80005 3.22498C3.08338 3.22498 3.31672 3.31664 3.50005 3.49998L20.5 20.5C20.6834 20.6833 20.7794 20.9126 20.788 21.188C20.796 21.4626 20.7001 21.7 20.5 21.9C20.3167 22.0833 20.0834 22.175 19.8 22.175C19.5167 22.175 19.2834 22.0833 19.1 21.9ZM5.55005 8.39998C5.06672 8.83331 4.62505 9.30831 4.22505 9.82498C3.82505 10.3416 3.48338 10.9 3.20005 11.5C4.03338 13.1833 5.22905 14.5206 6.78705 15.512C8.34572 16.504 10.0834 17 12 17C12.3334 17 12.6584 16.9793 12.975 16.938C13.2917 16.896 13.6167 16.85 13.95 16.8L13.05 15.85C12.8667 15.9 12.6917 15.9373 12.525 15.962C12.3584 15.9873 12.1834 16 12 16C10.75 16 9.68738 15.5626 8.81205 14.688C7.93738 13.8126 7.50005 12.75 7.50005 11.5C7.50005 11.3166 7.51238 11.1416 7.53705 10.975C7.56238 10.8083 7.60005 10.6333 7.65005 10.45L5.55005 8.39998Z" fill="#405F50"/>
</g>
</svg>
